<?xml version="1.0" standalone="no"?>
<!DOCTYPE svg PUBLIC "-//W3C//DTD SVG 20010904//EN"
 "http://www.w3.org/TR/2001/REC-SVG-20010904/DTD/svg10.dtd">
<svg version="1.0" xmlns="http://www.w3.org/2000/svg"
 width="736.000000pt" height="552.000000pt" viewBox="0 0 736.000000 552.000000"
 preserveAspectRatio="xMidYMid meet">

<g transform="translate(0.000000,552.000000) scale(0.100000,-0.100000)"
fill="#000000" stroke="none">
<path d="M1750 4958 c-13 -7 -35 -29 -48 -48 l-23 -35 68 -17 c217 -55 296
-110 453 -318 191 -253 408 -509 500 -589 78 -68 105 -100 52 -62 -100 71
-292 288 -541 614 -177 230 -249 285 -439 333 -52 13 -96 23 -98 21 -4 -3
-224 -418 -224 -422 0 -1 39 -5 88 -8 48 -4 119 -16 157 -27 39 -12 79 -22 90
-23 20 -2 224 -104 259 -130 15 -11 17 -17 7 -35 -11 -21 -13 -21 -46 -5 -20
10 -35 25 -37 37 -4 29 -103 83 -122 67 -20 -17 -88 17 -81 39 4 14 -11 21
-82 38 -49 12 -123 23 -166 24 l-78 3 -176 -330 c-191 -359 -203 -392 -162
-437 13 -15 58 -45 99 -66 41 -22 298 -158 570 -302 272 -144 500 -267 506
-273 6 -7 52 -134 103 -284 71 -210 91 -282 89 -315 l-3 -43 -242 -82 -242
-81 -138 414 c-76 228 -141 414 -145 414 -4 0 56 -185 133 -412 76 -226 136
-415 132 -419 -16 -14 -497 -169 -503 -161 -4 4 -15 29 -24 55 -25 66 -31 53
-7 -15 l19 -56 -309 -103 c-170 -57 -305 -105 -300 -107 5 -2 143 42 307 98
164 55 301 97 305 93 15 -18 80 -234 74 -250 -3 -10 -97 -112 -209 -228 l-203
-209 -34 102 c-18 57 -35 98 -37 93 -2 -6 10 -53 27 -103 17 -51 28 -103 25
-114 -4 -15 1 -26 14 -35 12 -9 43 -87 90 -229 40 -118 72 -220 72 -226 0 -6
-20 -17 -45 -24 -25 -7 -43 -15 -41 -18 3 -2 25 3 50 11 l45 15 22 -66 c12
-37 25 -71 30 -77 13 -13 12 -8 -16 70 -13 38 -21 73 -17 76 4 4 53 22 110 40
56 18 102 37 102 41 0 4 -49 -11 -110 -32 -69 -25 -112 -36 -116 -29 -3 6 -39
110 -80 231 l-74 221 42 46 c89 97 373 391 379 391 3 0 14 -26 24 -57 10 -32
20 -53 22 -48 2 6 -5 36 -16 67 l-19 56 48 47 48 48 64 -99 63 -99 5 192 5
192 104 -85 c57 -47 109 -83 114 -81 6 2 17 22 26 45 8 23 18 42 21 42 8 0 85
-238 79 -245 -3 -2 -194 -68 -424 -146 -372 -125 -464 -158 -444 -159 3 0 200
65 439 145 238 80 437 142 440 138 16 -18 171 -496 164 -503 -5 -4 -101 -38
-214 -75 -113 -38 -200 -70 -195 -72 6 -2 102 28 214 67 112 38 205 70 206 70
2 0 13 -30 25 -67 13 -38 26 -72 31 -78 5 -5 -2 24 -16 65 -14 40 -25 76 -25
80 0 3 25 14 56 24 31 10 54 20 51 22 -2 2 -23 -3 -47 -11 -23 -8 -48 -15 -55
-15 -9 0 -62 147 -145 395 -131 394 -132 396 -117 433 9 21 22 36 30 36 8 -1
97 -56 197 -123 100 -67 184 -121 185 -119 2 2 7 135 11 295 l7 292 121 41
c67 22 127 40 134 40 9 0 12 -63 12 -280 l0 -280 -36 -15 c-20 -8 -42 -15 -49
-15 -7 0 -27 42 -46 95 -18 52 -34 93 -37 91 -3 -4 30 -115 55 -183 3 -7 -21
-21 -56 -34 -78 -28 -74 -36 4 -9 32 11 59 19 60 18 1 -2 25 -73 53 -158 l52
-155 2 -325 3 -325 27 -51 c35 -67 115 -138 181 -161 49 -17 103 -18 822 -18
l770 0 62 29 c72 33 134 94 166 164 21 44 22 65 25 328 l3 281 75 18 c52 14
74 24 74 35 0 8 -15 72 -34 142 l-34 126 52 49 c95 92 417 375 421 371 3 -2
-98 -96 -224 -207 l-229 -203 38 -142 c27 -102 41 -140 51 -137 65 17 478 127
759 200 l345 91 55 57 c56 60 408 440 443 480 20 23 20 23 -13 150 -18 71 -35
131 -39 135 -3 4 -193 -42 -421 -102 -228 -60 -416 -107 -419 -105 -4 5 20 75
44 130 29 66 39 122 27 150 -15 33 -15 45 1 45 23 0 64 53 82 105 9 28 21 59
26 70 5 11 19 48 32 83 21 62 23 64 75 81 68 23 85 40 111 110 26 72 26 92 2
140 -98 191 -642 431 -978 431 -103 0 -163 -18 -206 -60 -20 -21 -48 -41 -61
-44 -13 -3 -31 -9 -40 -12 -14 -5 -16 45 -18 473 l-3 478 -26 56 c-33 69 -88
124 -159 158 l-55 26 -769 3 c-697 2 -774 1 -820 -14 -135 -45 -226 -166 -226
-301 0 -23 -4 -43 -9 -43 -4 0 -217 111 -472 246 -255 135 -477 248 -494 250
-16 3 -41 -1 -55 -8z m1530 -247 c0 -47 21 -91 51 -106 42 -22 866 -22 909 0
30 15 51 66 47 110 -2 19 4 20 149 20 150 0 151 0 200 -30 30 -19 60 -49 79
-79 l30 -49 3 -1821 c3 -2025 7 -1878 -66 -1948 -81 -78 -20 -73 -841 -76
-497 -2 -751 1 -786 8 -70 15 -128 59 -159 122 l-26 52 0 1816 c0 1332 3 1826
11 1851 7 19 23 49 36 67 52 69 113 91 256 92 l107 0 0 -29z m-1482 -408 l30
-17 -21 -42 -20 -43 -39 20 -38 19 20 40 c23 45 27 47 68 23z m115 -24 c23
-12 44 -23 46 -25 1 -1 -14 -34 -35 -73 l-37 -70 -49 25 c-26 13 -48 29 -48
34 0 19 60 130 71 130 5 0 29 -10 52 -21z m-171 -69 c18 -11 33 -27 33 -35 0
-23 114 -83 124 -66 7 10 15 9 42 -4 19 -10 35 -19 37 -20 6 -5 -18 -45 -27
-45 -6 0 -248 126 -260 136 -5 4 8 54 14 54 2 0 19 -9 37 -20z m258 -15 c35
-18 34 -14 14 -53 -21 -42 -28 -45 -64 -27 -35 18 -36 23 -12 64 20 36 23 36
62 16z m162 -157 c154 -172 293 -244 571 -294 20 -3 40 -11 43 -16 7 -11 -34
-4 -186 33 -138 34 -232 79 -321 152 -71 59 -229 232 -229 251 0 6 12 -2 26
-19 14 -16 57 -65 96 -107z m-356 -9 c84 -44 156 -84 159 -89 7 -12 -42 -110
-55 -110 -5 0 -79 37 -165 83 -111 59 -155 87 -155 100 0 25 38 97 51 97 7 0
81 -36 165 -81z m397 -210 c84 -45 155 -86 159 -92 8 -13 -38 -107 -54 -107
-12 0 -307 156 -321 169 -14 13 40 110 61 111 2 0 71 -37 155 -81z m-587 -156
c81 -43 149 -84 152 -92 7 -19 -35 -101 -53 -101 -18 0 -274 133 -306 159 -21
17 -21 18 -4 52 24 46 35 59 51 59 8 0 80 -35 160 -77z m3783 20 c276 -60 540
-189 664 -323 64 -69 76 -103 50 -138 -76 -102 -467 -53 -794 101 -173 80
-317 191 -349 267 -49 119 133 159 429 93z m-2645 -166 c12 -19 -26 -107 -45
-107 -15 0 -299 148 -317 165 -11 10 -10 20 8 56 13 24 28 47 34 51 13 9 306
-143 320 -165z m2150 63 c-11 -55 4 -97 58 -156 94 -102 267 -202 493 -284
137 -50 82 -42 -80 11 -212 70 -393 167 -491 264 -43 43 -44 45 -44 109 0 68
11 85 52 86 14 0 16 -6 12 -30z m-2780 -186 c122 -64 228 -123 236 -130 12
-12 11 -20 -8 -59 -12 -25 -28 -48 -36 -51 -15 -6 -86 33 -86 47 0 4 -6 6 -12
4 -18 -6 -382 191 -386 209 -5 23 37 96 55 96 9 0 116 -52 237 -116z m2980
-259 c147 -72 242 -106 396 -141 183 -42 321 -41 425 1 18 8 19 7 6 -9 -35
-43 -70 -51 -216 -50 -155 0 -244 17 -430 81 -209 72 -445 209 -445 259 0 21
5 19 66 -27 37 -27 125 -79 198 -114z m-25 -142 c119 -56 299 -116 417 -139
120 -23 296 -24 348 -1 47 21 52 21 35 1 -26 -32 -74 -47 -165 -52 -180 -9
-434 53 -659 162 -149 72 -215 117 -215 146 0 17 9 14 71 -26 39 -26 115 -67
168 -91z m-2476 -154 l177 -94 0 -99 c0 -78 -3 -103 -17 -118 -9 -10 -21 -18
-27 -18 -6 1 -65 68 -131 149 l-120 148 -7 -46 c-3 -25 -7 -95 -8 -156 l-2
-110 -79 235 c-43 129 -82 244 -85 254 -5 16 4 13 57 -16 35 -19 144 -77 242
-129z m2315 82 c110 -63 263 -126 407 -167 44 -12 70 -23 58 -23 -34 -1 -249
63 -356 108 -120 49 -187 87 -187 106 0 21 3 20 78 -24z m37 -179 c185 -81
373 -130 535 -139 129 -8 203 8 248 53 19 19 37 33 39 30 2 -2 5 -19 5 -37 2
-68 -72 -94 -242 -86 -201 10 -516 107 -671 208 -41 26 -30 22 86 -29z m-2245
-290 c0 -8 -191 -74 -197 -68 -2 1 0 70 4 153 l6 151 94 -114 c51 -63 93 -117
93 -122z m2427 73 c62 -20 154 -45 205 -56 112 -23 284 -25 351 -5 61 18 60 4
0 -26 -42 -20 -62 -23 -163 -22 -70 0 -148 7 -200 18 -206 43 -490 156 -490
195 0 18 8 16 93 -24 50 -23 142 -59 204 -80z m1387 43 c-41 -46 -409 -444
-439 -473 -28 -28 -71 -41 -560 -168 -291 -76 -537 -141 -545 -143 -13 -5 -13
-3 0 9 8 8 235 72 505 142 269 70 497 130 506 134 21 8 461 475 451 478 -4 2
-167 -39 -362 -90 -319 -84 -373 -97 -359 -83 4 4 797 214 813 215 5 1 1 -9
-10 -21z m80 -102 l29 -115 -49 -53 c-210 -229 -431 -464 -439 -466 -11 -4
-67 193 -63 219 3 17 474 529 487 529 3 0 19 -52 35 -114z m-304 23 c0 -8 11
-9 31 -5 28 5 9 -18 -143 -176 -145 -151 -184 -186 -226 -203 -27 -11 -58 -27
-69 -36 -13 -12 -490 -143 -818 -225 -11 -3 39 26 110 63 159 83 292 174 365
247 30 31 58 56 63 56 25 0 67 45 83 89 l17 48 286 76 c326 86 301 80 301 66z
m-1369 -33 c98 -45 283 -102 393 -121 111 -19 258 -19 319 -1 61 18 60 4 0
-26 -43 -20 -61 -23 -163 -22 -167 2 -344 43 -542 127 -73 30 -98 45 -98 59 0
24 6 23 91 -16z m-2465 -167 c-3 -34 -6 -142 -6 -240 0 -115 -4 -179 -10 -179
-6 0 -85 50 -176 111 -91 60 -171 112 -178 115 -7 3 -20 -12 -31 -36 l-19 -41
-28 78 c-15 43 -26 82 -25 87 3 10 439 164 466 165 11 1 13 -11 7 -60z m2512
0 c56 -21 109 -39 117 -39 8 0 15 -4 15 -8 0 -4 -61 -24 -135 -43 l-135 -36 0
90 c0 81 2 88 18 82 9 -4 63 -25 120 -46z m200 -64 c-10 -11 -338 -93 -338
-86 0 4 69 26 153 48 145 39 197 50 185 38z m32 -19 c-58 -56 -365 -324 -369
-321 -2 3 7 13 20 24 13 11 19 20 14 21 -6 0 -16 -5 -23 -12 -7 -7 -12 -8 -12
-2 0 24 133 132 171 139 13 3 42 23 64 45 39 41 38 40 -70 -25 -60 -37 -119
-75 -131 -86 -24 -23 -34 -24 -34 -5 0 8 28 32 63 54 94 59 221 127 213 114
-13 -22 10 -12 35 14 l24 26 -25 -7 c-37 -11 -125 -57 -220 -114 l-85 -51 -3
46 c-2 25 -2 48 0 49 9 9 314 85 324 81 7 -3 18 2 24 10 7 8 17 14 23 14 7 0
5 -6 -3 -14z m-3192 -257 c-11 -27 -23 -49 -25 -49 -3 0 -58 43 -122 95 -65
52 -121 95 -124 95 -4 0 -8 -71 -9 -157 l-3 -158 -36 57 -36 57 -59 -60 -58
-59 -42 123 c-23 67 -41 123 -41 123 1 1 117 39 257 86 l255 85 32 -95 32 -95
-21 -48z m3412 226 c0 -35 -116 -136 -235 -205 -30 -17 -36 -19 -23 -5 34 36
243 224 251 224 4 1 7 -6 7 -14z m89 -12 c-77 -85 -211 -179 -364 -255 -123
-62 -105 -31 21 36 126 67 193 114 259 182 39 40 69 62 84 63 l24 1 -24 -27z
m571 -236 c17 -66 30 -120 28 -122 -2 -2 -75 -22 -163 -45 -88 -23 -330 -86
-539 -141 -208 -55 -380 -98 -382 -97 -9 10 -62 234 -56 239 4 3 79 25 167 47
88 23 329 86 535 140 206 55 376 99 377 98 1 -1 16 -54 33 -119z m-3311 -204
l-1 -148 -44 130 c-24 71 -44 132 -44 136 0 6 55 26 78 28 9 1 12 -34 11 -146z"/>
<path d="M4170 3500 l0 -360 80 0 80 0 0 360 0 360 -80 0 -80 0 0 -360z m150
0 l0 -350 -70 0 -70 0 0 350 0 350 70 0 70 0 0 -350z"/>
<path d="M3950 3430 l0 -290 85 0 85 0 -2 288 -3 287 -82 3 -83 3 0 -291z
m150 0 l0 -280 -70 0 -70 0 0 273 c0 151 3 277 7 280 3 4 35 7 70 7 l63 0 0
-280z"/>
<path d="M3739 3533 c0 -20 0 -373 1 -385 0 -5 36 -8 80 -8 l80 0 0 205 0 205
-80 0 c-69 0 -80 -2 -81 -17z m151 -188 l0 -195 -70 0 -70 0 0 195 0 195 70 0
70 0 0 -195z"/>
<path d="M3300 3315 l0 -175 85 0 85 0 0 175 0 175 -85 0 -85 0 0 -175z"/>
<path d="M3520 3315 l0 -175 80 0 80 0 0 175 0 175 -80 0 -80 0 0 -175z"/>
<path d="M3668 2571 c-57 -19 -101 -43 -151 -84 l-27 -23 143 -145 c79 -79
151 -150 160 -158 16 -12 17 3 17 208 l0 221 -42 -1 c-24 0 -68 -8 -100 -18z
m132 -198 l0 -208 -145 145 c-80 80 -145 148 -145 152 0 4 24 24 54 44 59 39
152 73 204 73 l32 1 0 -207z"/>
<path d="M3840 2326 l0 -226 220 0 c175 0 222 3 226 13 9 26 -25 158 -55 210
-68 119 -207 213 -330 224 l-61 6 0 -227z"/>
<path d="M3447 2375 c-113 -141 -127 -350 -34 -503 66 -109 51 -114 230 66
l157 157 -156 158 c-86 86 -159 157 -163 157 -3 0 -19 -16 -34 -35z m333 -281
c0 -6 -65 -75 -145 -154 l-146 -143 -24 23 c-38 36 -82 131 -96 210 -20 115
11 236 87 336 l27 35 149 -148 c81 -81 148 -153 148 -159z"/>
<path d="M3670 1915 l-155 -155 30 -26 c17 -14 64 -42 105 -62 71 -35 80 -37
175 -37 80 0 112 5 160 23 154 58 266 201 282 360 l6 52 -224 0 -224 0 -155
-155z m590 121 c0 -37 -35 -140 -64 -189 -81 -140 -268 -226 -430 -199 -69 11
-154 48 -201 86 l-30 25 150 150 150 151 212 0 213 0 0 -24z"/>
<path d="M5945 2276 c-119 -37 -167 -101 -54 -71 56 15 131 55 137 73 5 15
-30 15 -83 -2z m25 -17 c0 -10 -59 -39 -81 -39 -22 0 12 30 45 39 17 5 32 10
34 10 1 1 2 -4 2 -10z"/>
<path d="M4940 1989 l-65 -61 63 52 c56 47 79 70 70 70 -2 0 -33 -27 -68 -61z"/>
<path d="M1170 2849 c0 -3 23 -72 50 -153 28 -82 50 -149 48 -151 -2 -1 -81
-28 -176 -60 -95 -31 -171 -59 -169 -61 2 -3 78 21 168 51 90 31 172 54 181
52 9 -3 19 0 21 6 2 6 46 25 98 43 52 18 87 33 78 33 -8 1 -52 -12 -97 -29
-46 -16 -84 -30 -86 -30 -3 0 -26 64 -51 143 -40 119 -65 180 -65 156z"/>
<path d="M2013 2797 c-84 -28 -153 -54 -153 -58 0 -7 318 96 328 106 13 12
-32 0 -175 -48z"/>
<path d="M1668 2682 c-26 -9 -50 -21 -55 -26 -5 -5 -1 -7 8 -3 10 3 35 11 58
18 23 7 41 16 41 21 0 4 -1 8 -2 7 -2 0 -24 -8 -50 -17z"/>
<path d="M650 2675 c-2 -14 254 -776 258 -766 1 5 -53 174 -121 377 -140 418
-135 402 -137 389z"/>
<path d="M1331 2384 c-1 -15 30 -106 35 -101 2 2 -5 28 -15 58 -11 30 -20 49
-20 43z"/>
<path d="M2531 2284 c-1 -15 30 -106 35 -101 2 2 -5 28 -15 58 -11 30 -20 49
-20 43z"/>
<path d="M967 1713 c9 -27 20 -52 26 -58 7 -7 8 -5 4 6 -3 10 -11 35 -18 58
-7 23 -16 41 -20 41 -4 0 -1 -21 8 -47z"/>
<path d="M2345 1739 c-27 -10 -37 -17 -21 -14 31 7 97 33 81 33 -5 0 -32 -8
-60 -19z"/>
<path d="M1712 1238 c3 -7 13 -37 23 -66 9 -29 19 -52 21 -49 5 5 -36 127 -43
127 -3 0 -3 -6 -1 -12z"/>
<path d="M1812 937 c12 -37 24 -65 26 -62 5 5 -28 107 -39 119 -4 5 1 -21 13
-57z"/>
<path d="M1695 940 c-27 -10 -43 -19 -34 -19 20 -1 81 19 94 30 14 13 -3 10
-60 -11z"/>
</g>
</svg>
